<svg width="33" height="40" viewBox="0 0 33 40" fill="none" xmlns="http://www.w3.org/2000/svg">
    <path d="M32.3784 21.3827H29.6799V8.70135L19.5619 3.03491L8.76729 9.10604L7.42041 6.81228L18.8877 0.202079C19.0878 0.0702566 19.3222 0 19.5619 0C19.8016 0 20.036 0.0702566 20.2361 0.202079L31.7034 6.6779C32.1081 6.94744 32.3784 7.35213 32.3784 7.89197V21.3827Z"/>
    <path d="M12.8165 40.0001C12.547 40.0001 12.4118 40.0001 12.1423 39.8649L0.675004 33.3899C0.270314 33.1195 0 32.7149 0 32.175V18.6843C0 18.1452 0.270314 17.7405 0.675004 17.4702L12.1423 10.9952C12.3423 10.863 12.5767 10.7925 12.8165 10.7925C13.0562 10.7925 13.2907 10.863 13.4907 10.9952L24.958 17.4702C25.3627 17.7405 25.633 18.1452 25.633 18.6843V32.175C25.633 32.7149 25.3627 33.1195 24.958 33.3899L13.4907 39.8649C13.2204 40.0001 13.086 40.0001 12.8165 40.0001ZM2.69846 31.3656L12.8165 37.0313L22.9345 31.3648V19.4898L12.8165 13.828L2.69846 19.4937V31.3656Z"/>
</svg>
