<svg width="40" height="40" viewBox="0 0 40 40" fill="none" xmlns="http://www.w3.org/2000/svg">
    <path d="M2.7373 0.3125L5.87949 35.5884L19.9789 39.5197L34.1176 35.5741L37.2623 0.3125H2.7373ZM30.7345 8.39437L29.6886 20.1459L29.6917 20.2094L29.6873 20.3553V20.3541L28.9442 28.5709L28.8623 29.3009L19.9998 31.7522L19.9929 31.7584L11.1457 29.2934L10.5467 22.5H14.8851L15.1929 25.9544L20.0011 27.2575L19.9998 27.26V27.2594L24.8257 25.9378L25.3357 20.3125H15.2473L15.1607 19.3616L14.9636 17.1337L14.8601 15.9375H25.7192L26.1142 11.5625H9.5748L9.48824 10.6122L9.29137 8.38375L9.18762 7.1875H30.8379L30.7345 8.39437Z"/>
</svg>
