<svg width="40" height="40" viewBox="0 0 40 29" fill="none" xmlns="http://www.w3.org/2000/svg">
    <path d="M39.6055 10.8352C39.497 10.7491 38.4843 9.9844 36.3485 9.9844C35.7846 9.98686 35.2218 10.0352 34.6657 10.1291C34.2524 7.29579 31.9099 5.91443 31.8049 5.85246L31.2314 5.52173L30.8542 6.06602C30.3819 6.79718 30.037 7.60318 29.8346 8.44976C29.4522 10.0671 29.6847 11.5862 30.5063 12.8848C29.5142 13.4377 27.9228 13.5738 27.6007 13.5858H1.25211C0.563887 13.5868 0.005431 14.1429 0.00168034 14.8311C-0.0290527 17.1394 0.362024 19.4339 1.15565 21.6016C2.06331 23.982 3.41366 25.7353 5.17048 26.8083C7.13913 28.014 10.3375 28.7029 13.9631 28.7029C15.601 28.7081 17.2357 28.5598 18.846 28.2603C21.0844 27.8493 23.2384 27.0669 25.2187 25.9454C26.8505 25.0005 28.319 23.7984 29.5677 22.3853C31.6552 20.0222 32.8988 17.3904 33.8236 15.0515H34.1922C36.4777 15.0515 37.8832 14.1369 38.6583 13.3705C39.1733 12.8817 39.5754 12.2862 39.8364 11.6258L40 11.147L39.6055 10.8352Z"/>
    <path d="M3.69451 12.8141H7.22534C7.39563 12.8141 7.53362 12.6761 7.53362 12.5059V9.3608C7.53457 9.19051 7.39731 9.05173 7.22707 9.05078C7.22651 9.05078 7.2259 9.05078 7.22534 9.05078H3.69451C3.52422 9.05078 3.38623 9.18883 3.38623 9.35906V9.3608V12.5058C3.38623 12.6761 3.52422 12.8141 3.69451 12.8141Z"/>
    <path d="M8.56056 12.8141H12.0914C12.2617 12.8141 12.3997 12.6761 12.3997 12.5059V9.3608C12.4006 9.19051 12.2634 9.05173 12.0931 9.05078C12.0925 9.05078 12.0919 9.05078 12.0913 9.05078H8.56051C8.38926 9.05078 8.25049 9.18956 8.25049 9.3608V12.5058C8.2515 12.6764 8.38999 12.8141 8.56056 12.8141Z"/>
    <path d="M13.4997 12.8141H17.0306C17.2009 12.8141 17.3389 12.6761 17.3389 12.5059V9.3608C17.3398 9.19051 17.2025 9.05173 17.0323 9.05078C17.0317 9.05078 17.0311 9.05078 17.0305 9.05078H13.4997C13.3294 9.05078 13.1914 9.18883 13.1914 9.35906V9.3608V12.5058C13.1915 12.6761 13.3295 12.8141 13.4997 12.8141Z"/>
    <path d="M18.381 12.8141H21.9119C22.0824 12.8141 22.2209 12.6764 22.2219 12.5059V9.3608C22.2219 9.18956 22.0831 9.05078 21.9119 9.05078H18.381C18.2107 9.05078 18.0728 9.18883 18.0728 9.35906V9.3608V12.5058C18.0728 12.6761 18.2108 12.8141 18.381 12.8141Z"/>
    <path d="M8.56051 8.28968H12.0913C12.2618 8.28873 12.3996 8.15018 12.3996 7.97966V4.83465C12.3996 4.66436 12.2616 4.52637 12.0913 4.52637H8.56051C8.38999 4.52637 8.25144 4.66408 8.25049 4.83465V7.97966C8.25144 8.15051 8.38965 8.28873 8.56051 8.28968Z"/>
    <path d="M13.4997 8.28968H17.0305C17.201 8.28873 17.3388 8.15018 17.3388 7.97966V4.83465C17.3388 4.66436 17.2008 4.52637 17.0305 4.52637H13.4997C13.3294 4.52637 13.1914 4.66441 13.1914 4.83465V7.97966C13.1914 8.15018 13.3292 8.28873 13.4997 8.28968Z"/>
    <path d="M18.381 8.28968H21.9119C22.0827 8.28873 22.2209 8.15051 22.2219 7.97966V4.83465C22.2209 4.66408 22.0824 4.52637 21.9119 4.52637H18.381C18.2107 4.52637 18.0728 4.66441 18.0728 4.83465V7.97966C18.0728 8.15018 18.2105 8.28873 18.381 8.28968Z"/>
    <path d="M18.381 3.76337H21.9119C22.0824 3.76337 22.2209 3.6256 22.2219 3.45509V0.308282C22.2209 0.137711 22.0824 0 21.9119 0H18.381C18.2107 0 18.0728 0.137991 18.0728 0.308282V3.45503C18.0728 3.62532 18.2108 3.76337 18.381 3.76337Z"/>
    <path d="M23.3049 12.8141H26.8357C27.0063 12.8141 27.1448 12.6764 27.1457 12.5059V9.3608C27.1457 9.18956 27.0069 9.05078 26.8357 9.05078H23.3049C23.1346 9.05078 22.9966 9.18883 22.9966 9.35906V9.3608V12.5058C22.9966 12.6761 23.1346 12.8141 23.3049 12.8141Z"/>
</svg>
