<svg width="28" height="40" viewBox="0 0 28 40" fill="none" xmlns="http://www.w3.org/2000/svg">
  <path fill-rule="evenodd" clip-rule="evenodd" d="M7.54902 14.966C4.74428 14.966 2.47059 17.2198 2.47059 20C2.47059 22.7802 4.74428 25.034 7.54902 25.034H12.7647V20V14.966H7.54902ZM20.3137 12.517L20.451 12.517C23.2557 12.517 25.5294 10.2632 25.5294 7.48299C25.5294 4.70278 23.2557 2.44898 20.451 2.44898H15.2353V12.517L20.3137 12.517ZM24.5907 13.7415C26.6442 12.4042 28 10.1005 28 7.48299C28 3.35025 24.6202 0 20.451 0H15.2353H14H12.7647H7.54902C3.37981 0 0 3.35025 0 7.48299C0 10.1005 1.35581 12.4042 3.40928 13.7415C1.35581 15.0788 0 17.3825 0 20C0 22.6175 1.35581 24.9212 3.40928 26.2585C1.35581 27.5958 0 29.8995 0 32.517C0 36.6583 3.42262 40 7.58315 40C11.7816 40 15.2353 36.6279 15.2353 32.449V27.483V26.2585V25.5367C16.5762 26.7459 18.3581 27.483 20.3137 27.483H20.451C24.6202 27.483 28 24.1327 28 20C28 17.3825 26.6442 15.0788 24.5907 13.7415ZM20.451 14.966L20.3137 14.966C17.509 14.966 15.2353 17.2198 15.2353 20C15.2353 22.7802 17.509 25.034 20.3137 25.034H20.451C23.2557 25.034 25.5294 22.7802 25.5294 20C25.5294 17.2198 23.2557 14.966 20.451 14.966ZM2.47059 32.517C2.47059 29.7368 4.74428 27.483 7.54902 27.483H12.7647V32.449C12.7647 35.2582 10.4345 37.551 7.58315 37.551C4.76973 37.551 2.47059 35.2886 2.47059 32.517ZM12.7647 12.517H7.54902C4.74428 12.517 2.47059 10.2632 2.47059 7.48299C2.47059 4.70278 4.74428 2.44898 7.54902 2.44898H12.7647V12.517Z"/>
</svg>
