<svg width="40" height="40" viewBox="0 0 40 40" fill="none" xmlns="http://www.w3.org/2000/svg">
    <g clip-path="url(#clip0_33_1768)">
        <path d="M38.9803 18.2432L21.7566 1.02003C20.7653 0.0281543 19.1566 0.0281543 18.1638 1.02003L14.5875 4.5969L19.1244 9.13378C20.1791 8.77784 21.3878 9.01659 22.2281 9.8569C23.0728 10.7025 23.3097 11.9216 22.945 12.9797L27.3175 17.3525C28.3753 16.9878 29.5963 17.2235 30.4406 18.0697C31.6219 19.25 31.6219 21.1635 30.4406 22.3444C29.2594 23.5257 27.3466 23.5257 26.1647 22.3444C25.2766 21.4557 25.0569 20.151 25.5069 19.0566L21.4294 14.9791L21.4288 25.7107C21.7169 25.8528 21.9885 26.0428 22.2285 26.2819C23.4091 27.4622 23.4091 29.375 22.2285 30.5578C21.0475 31.7382 19.1335 31.7382 17.9538 30.5578C16.7731 29.3753 16.7731 27.4625 17.9538 26.2819C18.2456 25.9903 18.5831 25.77 18.9435 25.6225V14.7916C18.5831 14.6441 18.2463 14.4253 17.9538 14.1319C17.0594 13.2382 16.8441 11.9257 17.3028 10.8269L12.83 6.35409L1.02002 18.1635C0.027832 19.1563 0.027832 20.765 1.02002 21.7572L18.2441 38.9803C19.236 39.9722 20.8441 39.9722 21.8375 38.9803L38.9806 21.8372C39.9725 20.8447 39.9725 19.235 38.9803 18.2432Z"/>
    </g>
    <defs>
        <clipPath id="clip0_33_1768">
            <rect width="40" height="40" fill="white"/>
        </clipPath>
    </defs>
</svg>
