<svg width="40" height="40" viewBox="0 0 40 40" fill="none" xmlns="http://www.w3.org/2000/svg">
    <path d="M2 0C0.895431 0 0 0.895431 0 2V38C0 39.1046 0.895431 40 2 40H38C39.1046 40 40 39.1046 40 38V2C40 0.895431 39.1046 0 38 0H2ZM21.1581 34.0842C20.5677 35.2838 19.4406 36.072 18.1347 36.4525C16.128 36.9133 14.2086 36.6506 12.7808 35.7936C12.331 35.5176 11.9276 35.1716 11.5737 34.7742C10.8886 34.0047 11.243 32.8547 12.1216 32.3166L13.2735 31.6112C13.4903 31.4784 13.7061 31.5217 13.8323 31.7424V31.7424C14.2208 32.3933 14.5558 32.8541 15.2144 33.1776C15.8614 33.3984 17.2819 33.5395 17.8304 32.401C18.1654 31.8218 18.0589 29.96 18.0589 27.9002C18.0586 25.2941 18.0683 22.6968 18.0721 20.1134C18.0736 19.0788 18.9124 18.24 19.947 18.24V18.24C20.9817 18.24 21.8205 19.0788 21.822 20.1135C21.8261 22.9564 21.8362 25.7084 21.8205 28.5286C21.8285 30.6342 22.0112 32.5114 21.1581 34.0842ZM36.7018 33.0256C35.3994 37.4806 28.1379 37.6253 25.2362 34.6819C25.0927 34.5199 24.9618 34.3759 24.8408 34.2402C24.1917 33.5128 24.542 32.4434 25.3865 31.9563V31.9563C26.2567 31.4544 27.2927 31.7934 28.0542 32.4486C28.5424 32.8685 29.102 33.1425 29.84 33.296C31.6794 33.5206 33.5299 32.8886 33.1149 30.935C32.6883 29.3395 29.3485 28.9514 27.0755 27.2451C24.768 25.6954 24.2272 21.9296 26.1235 19.7779C26.7555 18.9821 27.8333 18.3882 28.9642 18.1027L30.1443 17.9501C32.4102 17.9043 33.8266 18.5027 34.8662 19.6637V19.6637C35.4933 20.299 35.3903 21.2386 34.6381 21.7193V21.7193C33.8106 22.2483 32.5291 21.9581 31.6624 21.4962C31.5347 21.4282 31.4038 21.372 31.2714 21.3277C30.2659 21.023 28.9981 21.3542 28.735 22.4166C28.6524 22.7131 28.6601 22.991 28.77 23.4425C28.7939 23.5406 28.8258 23.6372 28.8758 23.7249C29.3513 24.5592 30.6434 24.9504 31.8083 25.4858C35.3382 26.9174 36.5302 28.4525 36.8234 30.2797C37.1056 31.8528 36.7552 32.8733 36.7018 33.0256Z"/>
</svg>
