<svg width="40" height="40" viewBox="0 0 40 40" fill="none" xmlns="http://www.w3.org/2000/svg">
    <path fill-rule="evenodd" clip-rule="evenodd" d="M33.7143 26.225C33.8833 26.134 34.0238 26.003 34.1217 25.845C34.2196 25.687 34.2715 25.5077 34.2721 25.325L34.2921 19.2969C34.2927 19.1142 34.3446 18.9349 34.4425 18.7769C34.5404 18.6189 34.6809 18.4879 34.8499 18.3969L38.3354 16.5198C38.5044 16.4289 38.6958 16.3811 38.8906 16.3814C39.0854 16.3818 39.2767 16.4301 39.4453 16.5216C39.6139 16.613 39.7539 16.7445 39.8513 16.9027C39.9486 17.0609 39.9998 17.2403 39.9999 17.4229V28.3823C39.9998 28.5655 39.9482 28.7455 39.8503 28.9041C39.7524 29.0626 39.6116 29.1942 39.4421 29.2854L26.2876 36.3688C26.1196 36.4592 25.9293 36.5069 25.7356 36.507C25.5418 36.5072 25.3514 36.4599 25.1832 36.3698L14.8599 30.8344C14.6898 30.7433 14.5484 30.6117 14.4501 30.4529C14.3518 30.2942 14.2999 30.1138 14.2999 29.9302V24.4042C14.2999 24.3979 14.3076 24.3938 14.3143 24.3969C14.3199 24.4 14.3276 24.3969 14.3276 24.3896V24.3833C14.3276 24.3792 14.3299 24.375 14.3343 24.3729L22.8365 19.7938C22.8443 19.7896 22.841 19.7781 22.8321 19.7781C22.8297 19.7781 22.8275 19.7773 22.8258 19.7757C22.8241 19.7741 22.8232 19.772 22.8232 19.7698L22.8399 14.3521C22.8406 14.1689 22.7899 13.9887 22.6927 13.8298C22.5955 13.6709 22.4553 13.5388 22.2862 13.4469C22.1172 13.355 21.9253 13.3065 21.7299 13.3063C21.5344 13.3061 21.3424 13.3542 21.1732 13.4458L14.8543 16.8594C14.6857 16.9504 14.4945 16.9983 14.2999 16.9983C14.1053 16.9983 13.9141 16.9504 13.7454 16.8594L7.40653 13.4375C7.23765 13.3463 7.04617 13.2984 6.85129 13.2986C6.65642 13.2987 6.46501 13.3469 6.29627 13.4383C6.12753 13.5296 5.98739 13.661 5.88993 13.8192C5.79246 13.9774 5.7411 14.1569 5.74098 14.3396V24.1313C5.74111 24.3138 5.69009 24.4931 5.59304 24.6513C5.49598 24.8095 5.3563 24.941 5.18797 25.0327C5.01964 25.1244 4.82857 25.173 4.6339 25.1736C4.43923 25.1743 4.24779 25.127 4.07876 25.0365L0.560978 23.1511C0.39059 23.0598 0.249017 22.9279 0.150654 22.7687C0.0522917 22.6095 0.000649117 22.4288 0.000978125 22.2448L0.0320892 5.13022C0.0325127 4.94777 0.084047 4.76862 0.181534 4.6107C0.279021 4.45279 0.419041 4.32165 0.58758 4.23041C0.756118 4.13917 0.947263 4.09104 1.14188 4.09082C1.3365 4.0906 1.52777 4.13832 1.69653 4.22918L13.7465 10.7177C13.9149 10.8084 14.1057 10.8561 14.2999 10.8561C14.494 10.8561 14.6848 10.8084 14.8532 10.7177L26.8999 4.22918C27.0689 4.13818 27.2605 4.09047 27.4554 4.09082C27.6503 4.09118 27.8416 4.13959 28.0103 4.23119C28.1789 4.3228 28.3189 4.45438 28.4161 4.61273C28.5134 4.77108 28.5645 4.95063 28.5643 5.13335V22.2521C28.5644 22.4352 28.513 22.6151 28.4152 22.7737C28.3175 22.9322 28.1769 23.0638 28.0076 23.1552L21.6988 26.5615C21.5293 26.6531 21.3886 26.785 21.291 26.9438C21.1933 27.1027 21.1421 27.283 21.1426 27.4663C21.143 27.6497 21.1951 27.8297 21.2935 27.9882C21.392 28.1466 21.5333 28.2779 21.7032 28.3688L25.1832 30.2261C25.3514 30.3158 25.5416 30.3628 25.7352 30.3625C25.9287 30.3621 26.1187 30.3144 26.2865 30.224L33.7143 26.225ZM34.4443 10.8688C34.4445 11.053 34.4967 11.2339 34.5958 11.393C34.6948 11.5521 34.8371 11.6837 35.0081 11.7745C35.1791 11.8652 35.3727 11.9118 35.5692 11.9095C35.7657 11.9072 35.958 11.8562 36.1265 11.7615L39.4599 9.88647C39.6244 9.79403 39.7606 9.66323 39.8553 9.50679C39.9499 9.35035 39.9997 9.17361 39.9999 8.99376V5.17293C39.9995 4.9888 39.9471 4.80805 39.848 4.64909C39.7489 4.49013 39.6066 4.35865 39.4356 4.26802C39.2646 4.1774 39.0711 4.13088 38.8747 4.13321C38.6783 4.13553 38.4861 4.18662 38.3176 4.28126L34.9843 6.15626C34.8198 6.2487 34.6835 6.37951 34.5889 6.53595C34.4943 6.69238 34.4445 6.86913 34.4443 7.04897V10.8688Z"/>
</svg>
