<svg width="40" height="40" viewBox="0 0 40 40" fill="none" xmlns="http://www.w3.org/2000/svg">
    <path d="M38.4191 8.86312L21.9342 0.39299C20.8946 -0.130997 19.5409 -0.130997 18.4931 0.39299L1.83215 8.86312C0.759252 9.40927 0 10.4357 0 11.5337V28.4514C0 29.5494 0.779066 30.5762 1.85196 31.1253L6.25383 33.3377C8.35776 34.2547 9.10131 34.2547 10.0587 34.2547C13.1738 34.2547 14.9533 32.5878 14.9533 29.6804V12.9783C14.9533 12.7424 14.8146 12.3914 14.5529 12.3914H12.4508C12.1847 12.3914 11.5888 12.7424 11.5888 12.9779V29.68C11.5888 30.9688 10.2714 32.2513 7.80935 31.162L3.26093 28.8421C3.10243 28.766 2.99065 28.6129 2.99065 28.4514V11.5337C2.99065 11.3742 3.19813 11.2141 3.35776 11.1324L19.9649 2.67683C20.12 2.5991 20.348 2.5991 20.5028 2.67683L36.9073 11.1304C37.0643 11.2141 37.009 11.3693 37.009 11.5337V28.4514C37.009 28.6129 37.0774 28.77 36.9222 28.8477L20.4415 37.3083C20.3002 37.3834 20.1249 37.3834 19.9701 37.3083L15.7432 35.0757C15.6157 35.0102 15.4643 34.9867 15.3421 35.0473C14.166 35.6371 13.9492 35.7155 12.846 36.0539C12.5746 36.1376 12.1742 36.2828 12.9993 36.692L18.5312 39.5878C19.0609 39.8591 19.6628 40 20.2684 40C20.8822 40 21.4834 39.8591 22.0131 39.5878L38.4187 31.1253C39.4916 30.5722 40 29.5494 40 28.4514V11.5337C40 10.4357 39.4916 9.41192 38.4191 8.86312ZM25.3869 25.7706C21.0034 25.7706 20.0378 24.7005 19.7159 22.7716C19.6785 22.5639 19.4793 22.3154 19.2404 22.3154H17.0979C16.8329 22.3154 16.6198 22.5999 16.6198 22.8335C16.6198 25.3032 18.1372 28.2956 25.3873 28.2956C30.6355 28.2956 33.6445 26.4911 33.6445 23.2976C33.6445 20.1312 31.2269 19.3002 26.1372 18.7041C20.9925 18.1024 20.4699 17.7984 20.4699 16.7319C20.4699 15.8526 20.9125 14.6799 24.7219 14.6799C28.1256 14.6799 29.3802 15.3263 29.8964 17.3564C29.9406 17.5473 30.1376 17.6842 30.36 17.6842H32.511C32.6434 17.6842 32.7697 17.6369 32.8624 17.5532C32.9521 17.4633 32.9996 17.3505 32.9877 17.2294C32.6546 13.7335 30.0299 12.1043 24.7215 12.1043C19.9996 12.1043 17.1828 13.8688 17.1828 16.8265C17.1828 20.0346 19.9854 20.9211 24.5181 21.3177C29.9406 21.7881 30.3622 22.4894 30.3622 23.4332C30.3622 25.0723 28.8751 25.7706 25.3869 25.7706Z"/>
</svg>
