<svg width="40" height="40" viewBox="0 0 40 40" fill="none" xmlns="http://www.w3.org/2000/svg">
    <path d="M33.8339 13.6145C33.131 13.364 32.3962 13.1136 31.6294 12.8945C31.8211 12.1431 31.9808 11.3918 32.1086 10.6717C32.7796 6.53936 32.0447 3.62791 30 2.50089C29.393 2.15653 28.722 2 27.9553 2C25.7189 2 22.8754 3.62791 20 6.35152C17.1246 3.62791 14.2811 2 12.0447 2C11.278 2 10.607 2.15653 10 2.50089C7.95527 3.65921 7.22045 6.57066 7.89137 10.6717C8.01917 11.3918 8.17891 12.1431 8.37061 12.8945C7.60383 13.1136 6.86901 13.3327 6.16613 13.6145C2.17252 15.1172 0 17.1834 0 19.5C0 21.8166 2.20447 23.8828 6.16613 25.3855C6.86901 25.636 7.60383 25.8864 8.37061 26.1055C8.17891 26.8569 8.01917 27.6082 7.89137 28.3283C7.22045 32.4606 7.95527 35.3721 10 36.4991C10.607 36.8435 11.278 37 12.0447 37C14.3131 37 17.1565 35.3721 20 32.6485C22.8754 35.3721 25.7189 37 27.9553 37C28.722 37 29.393 36.8435 30 36.4991C32.0447 35.3408 32.7796 32.4293 32.1086 28.3283C31.9808 27.6082 31.8211 26.8569 31.6294 26.1055C32.3962 25.8864 33.131 25.6673 33.8339 25.3855C37.8275 23.8828 40 21.8166 40 19.5C40 17.1834 37.8275 15.1172 33.8339 13.6145ZM29.1054 4.06619C30.4153 4.81753 30.8626 7.13417 30.3195 10.4213C30.2236 11.0787 30.0639 11.7674 29.8722 12.4875C28.2109 12.1118 26.4537 11.8614 24.6006 11.7048C23.5144 10.2021 22.3962 8.85599 21.278 7.63506C23.6422 5.34973 26.0383 3.78444 27.9872 3.78444C28.4026 3.78444 28.7859 3.87835 29.1054 4.06619ZM25.5272 22.6306C24.9521 23.6324 24.2811 24.6342 23.5783 25.636C22.3962 25.7299 21.2141 25.7612 20 25.7612C18.754 25.7612 17.5719 25.7299 16.4217 25.636C15.7188 24.6342 15.0799 23.6324 14.5048 22.6306C13.8978 21.5975 13.3227 20.5331 12.8115 19.5C13.3227 18.4669 13.8978 17.4025 14.5048 16.3694C15.0799 15.3676 15.7508 14.3658 16.4537 13.364C17.6358 13.2701 18.8179 13.2388 20.0319 13.2388C21.278 13.2388 22.4601 13.2701 23.6102 13.364C24.3131 14.3658 24.9521 15.3676 25.5272 16.3694C26.1342 17.4025 26.7093 18.4669 27.2204 19.5C26.6773 20.5331 26.1342 21.5662 25.5272 22.6306ZM28.1789 21.5975C28.6581 22.6932 29.0415 23.7576 29.393 24.822C28.3067 25.0725 27.1565 25.2603 25.9425 25.4168C26.3259 24.822 26.7412 24.1959 27.0927 23.5385C27.476 22.881 27.8275 22.2236 28.1789 21.5975ZM20 30.0814C19.2332 29.2674 18.4984 28.3909 17.7955 27.483C18.5304 27.5143 19.2652 27.5456 20 27.5456C20.7348 27.5456 21.4696 27.5143 22.2045 27.483C21.5016 28.3909 20.7668 29.2674 20 30.0814ZM14.0575 25.3855C12.8435 25.229 11.6933 25.0411 10.607 24.7907C10.9585 23.7576 11.3419 22.6619 11.8211 21.5662C12.1725 22.1923 12.524 22.8497 12.9073 23.4758C13.2907 24.1646 13.6741 24.7594 14.0575 25.3855ZM11.8211 17.4025C11.3419 16.3068 10.9585 15.2424 10.607 14.178C11.6933 13.9275 12.8435 13.7397 14.0575 13.5832C13.6741 14.178 13.2588 14.8041 12.9073 15.4615C12.524 16.119 12.1725 16.7764 11.8211 17.4025ZM20 8.9186C20.7668 9.73256 21.5016 10.6091 22.2045 11.517C21.4696 11.4857 20.7348 11.4544 20 11.4544C19.2652 11.4544 18.5304 11.4857 17.7955 11.517C18.4984 10.6091 19.2332 9.73256 20 8.9186ZM27.0927 15.4928L25.9425 13.6145C27.1565 13.771 28.3067 13.9589 29.393 14.2093C29.0415 15.2424 28.6581 16.3381 28.1789 17.4338C27.8275 16.7764 27.476 16.119 27.0927 15.4928ZM9.68051 10.4213C9.13738 7.13417 9.58466 4.81753 10.8946 4.06619C11.2141 3.87835 11.5974 3.78444 12.0128 3.78444C13.9297 3.78444 16.3259 5.31843 18.722 7.63506C17.6038 8.82469 16.4856 10.2021 15.3994 11.7048C13.5463 11.8614 11.7891 12.1431 10.1278 12.4875C9.9361 11.7674 9.80831 11.0787 9.68051 10.4213ZM1.78914 19.5C1.78914 18.0286 3.61022 16.4633 6.80511 15.305C7.44409 15.0546 8.14697 14.8354 8.84984 14.6476C9.36102 16.2129 10 17.8721 10.7668 19.5313C10 21.1905 9.32907 22.8184 8.84984 24.3837C4.44089 23.1315 1.78914 21.2531 1.78914 19.5ZM10.8946 34.9338C9.58466 34.1825 9.13738 31.8658 9.68051 28.5787C9.77636 27.9213 9.9361 27.2326 10.1278 26.5125C11.7891 26.8882 13.5463 27.1386 15.3994 27.2952C16.4856 28.7979 17.6038 30.144 18.722 31.3649C16.3578 33.6503 13.9617 35.2156 12.0128 35.2156C11.5974 35.2156 11.2141 35.1216 10.8946 34.9338ZM30.3195 28.5787C30.8626 31.8658 30.4153 34.1825 29.1054 34.9338C28.7859 35.1216 28.4026 35.2156 27.9872 35.2156C26.0703 35.2156 23.6741 33.6816 21.278 31.3649C22.3962 30.1753 23.5144 28.7979 24.6006 27.2952C26.4537 27.1386 28.2109 26.8569 29.8722 26.5125C30.0639 27.2326 30.1917 27.9213 30.3195 28.5787ZM33.1949 23.695C32.5559 23.9454 31.853 24.1646 31.1502 24.3524C30.639 22.7871 30 21.1279 29.2332 19.4687C30 17.8095 30.6709 16.1816 31.1502 14.6163C35.5591 15.8685 38.2109 17.7469 38.2109 19.5C38.2109 20.9714 36.3578 22.5367 33.1949 23.695Z"/>
</svg>
