<svg width="40" height="40" viewBox="0 0 40 40" fill="none" xmlns="http://www.w3.org/2000/svg">
    <path d="M27.7158 27.9357C29.1919 27.7749 30.3118 26.4344 30.2609 24.8258C30.21 23.2172 28.9374 21.9304 27.4104 21.9304H27.3086C25.7306 21.984 24.509 23.3781 24.5599 25.0403C24.6108 25.8446 24.9162 26.5416 25.3743 27.0242C23.6436 30.6167 20.9968 33.244 17.0264 35.4424C14.3286 36.9438 11.529 37.48 8.72945 37.1046C6.43887 36.7829 4.65731 35.7105 3.53748 33.9411C1.90862 31.3137 1.75592 28.4719 3.13026 25.6301C4.09739 23.5926 5.62444 22.0912 6.59158 21.3405C6.38797 20.6435 6.08256 19.4639 5.92985 18.606C-1.45089 24.236 -0.687364 31.8499 1.55231 35.4424C3.23207 38.1234 6.64248 39.7856 10.4092 39.7856C11.4272 39.7856 12.4453 39.6783 13.4633 39.4102C19.9787 38.0698 24.9162 33.9947 27.7158 27.9357Z"/>
    <path d="M36.6748 21.2869C32.8062 16.5147 27.1053 13.8874 20.5898 13.8874H19.7754C19.3173 12.9222 18.3502 12.2788 17.2812 12.2788H17.1794C15.6015 12.3324 14.3798 13.7265 14.4307 15.3887C14.4816 16.9973 15.7542 18.2842 17.2812 18.2842H17.383C18.5029 18.2306 19.47 17.4799 19.8772 16.4611H20.7934C24.662 16.4611 28.3269 17.6407 31.6355 19.9464C34.1806 21.7158 36.013 24.0214 37.0311 26.8096C37.8964 29.0616 37.8455 31.26 36.9293 33.1367C35.504 35.9785 33.1117 37.5335 29.9557 37.5335C27.9197 37.5335 25.9854 36.8901 24.9674 36.4075C24.4075 36.9437 23.3894 37.8016 22.6768 38.3378C24.8656 39.4102 27.1053 40 29.2431 40C34.1297 40 37.7437 37.1582 39.118 34.3163C40.5942 31.2064 40.4924 25.8445 36.6748 21.2869Z"/>
    <path d="M10.8162 28.8472C10.8671 30.4558 12.1397 31.7426 13.6667 31.7426H13.7685C15.3465 31.689 16.5681 30.2949 16.5172 28.6327C16.4663 27.0241 15.1938 25.7373 13.6667 25.7373H13.5649C13.4631 25.7373 13.3104 25.7373 13.2086 25.7909C11.1217 22.1448 10.2563 18.1769 10.5617 13.8874C10.7653 10.6702 11.7834 7.88204 13.5649 5.57641C15.0411 3.59249 17.8916 2.62735 19.8258 2.57373C25.2214 2.46649 27.512 9.54424 27.6647 12.3861C28.3264 12.5469 29.4463 12.9223 30.2098 13.1903C29.599 4.50402 24.5088 0 19.6222 0C15.0411 0 10.8162 3.48525 9.13649 8.63271C6.79501 15.496 8.32206 22.0912 11.1726 27.2922C10.918 27.6676 10.7653 28.2574 10.8162 28.8472Z"/>
</svg>
