<svg width="40" height="40" viewBox="0 0 40 40" fill="none" xmlns="http://www.w3.org/2000/svg">
    <g clip-path="url(#clip0_302_5)">
        <path d="M20.0013 8.00063C14.6678 8.00063 11.3356 10.6663 10.0013 15.9997C12.0006 13.3338 14.3347 12.3341 17.0006 13.0006C18.5228 13.38 19.6106 14.4838 20.8153 15.7069C22.7759 17.6966 25.0453 20 30.0013 20C35.3344 20 38.6669 17.3341 40.0013 11.9994C38.0016 14.6669 35.6678 15.6666 33.0016 15C31.4797 14.6203 30.3931 13.5169 29.1869 12.2938C27.2275 10.3041 24.9588 8.00063 20.0013 8.00063ZM10.0013 20C4.66813 20 1.33563 22.6659 0.00125122 28.0006C2.00063 25.3331 4.33438 24.3334 7.00063 25C8.52281 25.3797 9.61063 26.4831 10.8153 27.7063C12.7759 29.6959 15.0453 31.9994 20.0013 31.9994C25.3344 31.9994 28.6669 29.3338 30.0013 24.0003C28.0016 26.6663 25.6678 27.6659 23.0016 26.9994C21.4797 26.62 20.3931 25.5163 19.1869 24.2931C17.2275 22.3034 14.9588 20 10.0013 20Z" />
    </g>
    <defs>
        <clipPath id="clip0_302_5">
            <rect width="40" height="40"/>
        </clipPath>
    </defs>
</svg>
