<svg width="40" height="40" viewBox="0 0 40 40" fill="none" xmlns="http://www.w3.org/2000/svg">
    <path d="M8.36294 12.8394C7.71184 9.67677 7.57211 7.25103 7.99298 5.4896C8.24328 4.44201 8.70091 3.5874 9.39676 2.97081C10.1314 2.31985 11.0602 2.00042 12.1038 2.00042C13.8255 2.00042 15.6354 2.7869 17.5696 4.28098C18.3586 4.89039 19.1774 5.62494 20.0277 6.48504C20.0954 6.39775 20.1719 6.31542 20.2571 6.23933C22.6613 4.0932 24.6853 2.75979 26.4165 2.24566C27.4459 1.93997 28.4123 1.91084 29.2924 2.20753C30.2214 2.52071 30.9616 3.16809 31.4839 4.07487C32.3457 5.57137 32.573 7.53779 32.2517 9.96582C32.1207 10.9555 31.8968 12.0336 31.5804 13.2016C31.6998 13.2161 31.8195 13.2426 31.9379 13.2819C34.9882 14.2945 37.1481 15.3834 38.4558 16.6278C39.2338 17.3682 39.7419 18.1925 39.9256 19.105C40.1194 20.068 39.9304 21.034 39.4087 21.9401C38.5485 23.4345 36.9667 24.6131 34.7132 25.5466C33.8083 25.9214 32.7845 26.2609 31.6407 26.5662C31.6929 26.6842 31.7334 26.8096 31.7604 26.9411C32.4116 30.1038 32.5513 32.5295 32.1304 34.291C31.8801 35.3386 31.4225 36.1932 30.7266 36.8098C29.992 37.4607 29.0632 37.7802 28.0195 37.7802C26.2979 37.7802 24.488 36.9937 22.5538 35.4996C21.7564 34.8837 20.9286 34.14 20.0685 33.268C19.98 33.4067 19.8714 33.5356 19.7429 33.6503C17.3387 35.7964 15.3147 37.1299 13.5835 37.644C12.5541 37.9497 11.5877 37.9788 10.7076 37.6821C9.7786 37.3689 9.03839 36.7216 8.51614 35.8148C7.65425 34.3183 7.42696 32.3519 7.7483 29.9238C7.88401 28.8984 8.1195 27.778 8.45423 26.561C8.32339 26.5477 8.19202 26.52 8.0621 26.4769C5.0118 25.4643 2.85188 24.3754 1.54421 23.1309C0.766175 22.3905 0.258111 21.5662 0.0744495 20.6538C-0.119406 19.6907 0.0696182 18.7247 0.591253 17.8186C1.45153 16.3243 3.03334 15.1457 5.28682 14.2122C6.21863 13.8262 7.27657 13.4777 8.46188 13.1654C8.41965 13.0618 8.3863 12.9529 8.36294 12.8394Z" fill="#27272A"/>
    <path d="M29.6324 27.252C29.9356 27.1982 30.2263 27.393 30.294 27.6918L30.2977 27.7095L30.33 27.8777C31.3784 33.3992 30.6399 36.16 28.1145 36.16C25.6435 36.16 22.4981 33.8042 18.6781 29.0927C18.5937 28.9886 18.5482 28.8583 18.5493 28.7242C18.5521 28.4118 18.8023 28.1596 19.112 28.1528L19.1299 28.1527L19.3311 28.1541C20.9385 28.1629 22.5012 28.1067 24.0192 27.9857C25.811 27.8428 27.6821 27.5983 29.6324 27.252ZM12.2884 23.0783L12.2981 23.0947L12.399 23.2711C13.2079 24.6798 14.0507 26.0169 14.9273 27.2823C15.9596 28.7724 17.1206 30.281 18.4101 31.808C18.6096 32.0442 18.5868 32.3949 18.3618 32.6034L18.3471 32.6165L18.2174 32.7284C13.9508 36.3905 11.1777 37.1216 9.89809 34.9216C8.64553 32.7682 9.09965 28.8527 11.2605 23.1751C11.308 23.0503 11.3972 22.9459 11.513 22.8797C11.7835 22.7251 12.1265 22.8144 12.2884 23.0783ZM31.7974 14.9307L31.8149 14.9364L31.9755 14.992C37.2418 16.8271 39.2427 18.8439 37.978 21.0423C36.741 23.1923 33.1452 24.7577 27.1903 25.7385C27.0575 25.7604 26.9213 25.735 26.8052 25.6667C26.5312 25.5053 26.4397 25.152 26.6008 24.8775C27.4537 23.4241 28.2218 21.978 28.9052 20.5392C29.6803 18.9074 30.4077 17.1559 31.0874 15.2847C31.1904 15.001 31.4931 14.8469 31.7799 14.9256L31.7974 14.9307ZM13.1948 14.0068C13.4688 14.1681 13.5603 14.5215 13.3992 14.796C12.5463 16.2493 11.7782 17.6954 11.0948 19.1342C10.3197 20.766 9.5923 22.5175 8.91263 24.3887C8.80748 24.6782 8.49444 24.8328 8.2026 24.7427L8.18511 24.737L8.02453 24.6814C2.75816 22.8463 0.757327 20.8295 2.02203 18.6312C3.25896 16.4811 6.85485 14.9157 12.8097 13.9349C12.9425 13.913 13.0787 13.9385 13.1948 14.0068ZM30.1019 4.96803C31.3545 7.12145 30.9004 11.037 28.7395 16.7146C28.692 16.8393 28.6028 16.9437 28.487 17.0099C28.2165 17.1646 27.8735 17.0753 27.7116 16.8113L27.7019 16.795L27.601 16.6185C26.7921 15.2098 25.9493 13.8728 25.0727 12.6074C24.0404 11.1172 22.8794 9.60861 21.5899 8.08164C21.3904 7.84541 21.4132 7.49478 21.6382 7.28625L21.6529 7.27314L21.7826 7.16127C26.0492 3.49916 28.8223 2.76808 30.1019 4.96803ZM12.1014 3.65755C14.5723 3.65755 17.7177 6.01333 21.5377 10.7249C21.6221 10.829 21.6677 10.9593 21.6665 11.0934C21.6637 11.4058 21.4135 11.658 21.1038 11.6648L21.0859 11.6649L20.8848 11.6634C19.2773 11.6547 17.7146 11.7109 16.1967 11.8319C14.4048 11.9747 12.5338 12.2193 10.5835 12.5655C10.2802 12.6194 9.98955 12.4246 9.92184 12.1258L9.91812 12.1081L9.8858 11.9399C8.83738 6.41833 9.57591 3.65755 12.1014 3.65755Z" fill="#FAFAFA"/>
    <path opacity="0.6" d="M17.3898 13.5308H22.3235C23.0451 13.5308 23.7115 13.9174 24.0706 14.5443L26.5479 18.8683C26.9043 19.4904 26.9043 20.2552 26.5479 20.8772L24.0706 25.2012C23.7115 25.8281 23.0451 26.2147 22.3235 26.2147H17.3898C16.6682 26.2147 16.0018 25.8281 15.6427 25.2012L13.1654 20.8772C12.809 20.2552 12.809 19.4904 13.1654 18.8683L15.6427 14.5443C16.0018 13.9174 16.6682 13.5308 17.3898 13.5308ZM21.5716 14.8359C22.2935 14.8359 22.9602 15.2229 23.3192 15.8503L25.0467 18.8693C25.4023 19.4908 25.4023 20.2547 25.0467 20.8763L23.3192 23.8952C22.9602 24.5226 22.2935 24.9096 21.5716 24.9096H18.1417C17.4198 24.9096 16.7531 24.5226 16.3941 23.8952L14.6666 20.8763C14.311 20.2547 14.311 19.4908 14.6666 18.8693L16.3941 15.8503C16.7531 15.2229 17.4198 14.8359 18.1417 14.8359H21.5716ZM20.7611 16.2634H18.9522C18.231 16.2634 17.5649 16.6496 17.2056 17.276L16.2927 18.8675C15.9357 19.49 15.9357 20.2556 16.2927 20.8781L17.2056 22.4696C17.5649 23.096 18.231 23.4822 18.9522 23.4822H20.7611C21.4823 23.4822 22.1484 23.096 22.5077 22.4696L23.4205 20.8781C23.7776 20.2556 23.7776 19.49 23.4205 18.8675L22.5077 17.276C22.1484 16.6496 21.4823 16.2634 20.7611 16.2634ZM19.9807 17.6296C20.7013 17.6296 21.3671 18.0153 21.7265 18.6409L21.856 18.8662C22.214 19.4893 22.214 20.2562 21.856 20.8794L21.7265 21.1046C21.3671 21.7303 20.7013 22.1159 19.9807 22.1159H19.7326C19.012 22.1159 18.3462 21.7303 17.9868 21.1046L17.8573 20.8794C17.4993 20.2562 17.4993 19.4893 17.8573 18.8662L17.9868 18.6409C18.3462 18.0153 19.012 17.6296 19.7326 17.6296H19.9807ZM19.857 18.9755C19.5362 18.9755 19.2404 19.1465 19.0803 19.4241C18.9202 19.7017 18.9202 20.0438 19.0803 20.3214C19.2404 20.599 19.5362 20.77 19.8563 20.77C20.1771 20.77 20.4728 20.599 20.633 20.3214C20.7931 20.0438 20.7931 19.7017 20.633 19.4241C20.4728 19.1465 20.1771 18.9755 19.857 18.9755ZM12.5899 19.8728H14.2026Z" fill="#FAFAFA"/>
</svg>
