<svg width="41" height="41" viewBox="0 0 41 41" fill="none" xmlns="http://www.w3.org/2000/svg">
    <path d="M39.1991 31.5948L21.2468 40.7598V33.6232L32.4324 28.069L39.1991 31.5948ZM40.4289 30.5912V11.4275L33.8622 14.8525V27.1716L40.4289 30.5912ZM1.71756 31.5948L19.6699 40.7598V33.6232L8.47836 28.069L1.71756 31.5948ZM0.487793 30.5912V11.4275L7.05442 14.8525V27.1716L0.487793 30.5912ZM1.25861 10.185L19.6699 0.786377V7.68402L7.8723 13.5409L7.77816 13.5887L1.25861 10.185ZM39.6581 10.185L21.2468 0.786377V7.68402L33.0444 13.5356L33.1385 13.5834L39.6581 10.185Z"/>
    <path d="M39.14 31.6214L21.1877 40.7864V33.6498L32.3733 28.0956L39.14 31.6214ZM40.3698 30.6178V11.4542L33.8032 14.8791V27.1982L40.3698 30.6178ZM1.65848 31.6214L19.6108 40.7864V33.6498L8.41928 28.0956L1.65848 31.6214ZM0.428711 30.6178V11.4542L6.99533 14.8791V27.1982L0.428711 30.6178ZM1.19952 10.2116L19.6108 0.812988V7.71063L7.81322 13.5675L7.71907 13.6153L1.19952 10.2116ZM39.599 10.2116L21.1877 0.812988V7.71063L32.9853 13.5622L33.0794 13.61L39.599 10.2116Z"/>
    <path opacity="0.4" d="M19.6108 32.0251L8.57227 26.5452V15.697L19.6108 21.4477V32.0251ZM21.1877 32.0251L32.2262 26.5505V15.697L21.1877 21.4477V32.0251ZM9.31954 14.4438L20.3992 8.948L31.479 14.4438L20.3992 20.2157L9.31954 14.4438Z"/>
</svg>

